HIERARCHY
ROOT Hips
{
  OFFSET 5.72205e-005 65.662 3.42586
  CHANNELS 6 Xposition Yposition Zposition Zrotation Xrotation Yrotation
  JOINT Chest
  {
    OFFSET 0 8.7983 -4.7612
    CHANNELS 3 Zrotation Xrotation Yrotation
    JOINT Chest2
    {
      OFFSET 0 8.0291 0.4195
      CHANNELS 3 Zrotation Xrotation Yrotation
      JOINT Chest3
      {
        OFFSET 0 9.9351 -2.2114
        CHANNELS 3 Zrotation Xrotation Yrotation
        JOINT Neck
        {
          OFFSET 0 22.3885 -0.4656
          CHANNELS 3 Zrotation Xrotation Yrotation
          JOINT Head
          {
            OFFSET -0.0001 12.643 3.4389
            CHANNELS 3 Zrotation Xrotation Yrotation
            End Site
            {
              OFFSET 0.0001 17.6655 0.5274
            }
          }
        }
        JOINT LeftCollar
        {
          OFFSET 2.2603 21.606 7.4023
          CHANNELS 3 Zrotation Xrotation Yrotation
          JOINT LeftShoulder
          {
            OFFSET 13.5163 -1.1332 -5.0146
            CHANNELS 3 Zrotation Xrotation Yrotation
            JOINT LeftElbow
            {
              OFFSET -0.0995 -28.05 -0.2431
              CHANNELS 3 Zrotation Xrotation Yrotation
              JOINT LeftWrist
              {
                OFFSET 0.0679 -23.3996 -0.1402
                CHANNELS 3 Zrotation Xrotation Yrotation
                JOINT LeftFinger1
                {
                  OFFSET 0.7932 -9.069 2.5189
                  CHANNELS 3 Zrotation Xrotation Yrotation
                  JOINT LeftFinger11
                  {
                    OFFSET -0.8272 -3.3923 0.5977
                    CHANNELS 3 Zrotation Xrotation Yrotation
                    JOINT LeftFinger12
                    {
                      OFFSET -0.5649 -2.3158 0.4082
                      CHANNELS 3 Zrotation Xrotation Yrotation
                      End Site
                      {
                        OFFSET -0.4919 -1.6479 0.2673
                      }
                    }
                  }
                }
                JOINT LeftFinger2
                {
                  OFFSET 0.9159 -9.2044 0.2193
                  CHANNELS 3 Zrotation Xrotation Yrotation
                  JOINT LeftFinger21
                  {
                    OFFSET 0.0117 -4.1944 -0.0248
                    CHANNELS 3 Zrotation Xrotation Yrotation
                    JOINT LeftFinger22
                    {
                      OFFSET 0.0071 -2.3249 -0.0142
                      CHANNELS 3 Zrotation Xrotation Yrotation
                      End Site
                      {
                        OFFSET -0.1475 -2.0882 0.0028
                      }
                    }
                  }
                }
                JOINT LeftFinger3
                {
                  OFFSET 0.6113 -8.7231 -2.0637
                  CHANNELS 3 Zrotation Xrotation Yrotation
                  JOINT LeftFinger31
                  {
                    OFFSET -0.1927 -3.8059 -0.2383
                    CHANNELS 3 Zrotation Xrotation Yrotation
                    JOINT LeftFinger32
                    {
                      OFFSET -0.1091 -2.1688 -0.1362
                      CHANNELS 3 Zrotation Xrotation Yrotation
                      End Site
                      {
                        OFFSET -0.2358 -1.9176 -0.0906
                      }
                    }
                  }
                }
                JOINT LeftFinger4
                {
                  OFFSET -0.6151 -8.0947 -3.5641
                  CHANNELS 3 Zrotation Xrotation Yrotation
                  JOINT LeftFinger41
                  {
                    OFFSET -0.4882 -2.341 -0.6462
                    CHANNELS 3 Zrotation Xrotation Yrotation
                    JOINT LeftFinger42
                    {
                      OFFSET -0.3575 -1.7167 -0.4742
                      CHANNELS 3 Zrotation Xrotation Yrotation
                      End Site
                      {
                        OFFSET -0.4187 -1.5237 -0.3496
                      }
                    }
                  }
                }
                JOINT LeftFinger0
                {
                  OFFSET -1.42 -1.8761 1.4223
                  CHANNELS 3 Zrotation Xrotation Yrotation
                  JOINT LeftFinger01
                  {
                    OFFSET -1.1471 -3.4929 2.6334
                    CHANNELS 3 Zrotation Xrotation Yrotation
                    JOINT LeftFinger02
                    {
                      OFFSET -0.823 -2.3 1.6571
                      CHANNELS 3 Zrotation Xrotation Yrotation
                      End Site
                      {
                        OFFSET -0.5822 -1.6914 1.1582
                      }
                    }
                  }
                }
              }
            }
          }
        }
        JOINT RightCollar
        {
          OFFSET -2.2603 21.606 7.4023
          CHANNELS 3 Zrotation Xrotation Yrotation
          JOINT RightShoulder
          {
            OFFSET -13.5187 -1.1334 -5.0155
            CHANNELS 3 Zrotation Xrotation Yrotation
            JOINT RightElbow
            {
              OFFSET 0.0994 -28.0499 -0.2431
              CHANNELS 3 Zrotation Xrotation Yrotation
              JOINT RightWrist
              {
                OFFSET -0.0679 -23.3996 -0.1402
                CHANNELS 3 Zrotation Xrotation Yrotation
                JOINT RightFinger1
                {
                  OFFSET -0.7932 -9.0691 2.5189
                  CHANNELS 3 Zrotation Xrotation Yrotation
                  JOINT RightFinger11
                  {
                    OFFSET 0.8272 -3.3923 0.5977
                    CHANNELS 3 Zrotation Xrotation Yrotation
                    JOINT RightFinger12
                    {
                      OFFSET 0.565 -2.3158 0.4082
                      CHANNELS 3 Zrotation Xrotation Yrotation
                      End Site
                      {
                        OFFSET 0.4919 -1.6479 0.2673
                      }
                    }
                  }
                }
                JOINT RightFinger2
                {
                  OFFSET -0.916 -9.2044 0.2193
                  CHANNELS 3 Zrotation Xrotation Yrotation
                  JOINT RightFinger21
                  {
                    OFFSET -0.0117 -4.1944 -0.0248
                    CHANNELS 3 Zrotation Xrotation Yrotation
                    JOINT RightFinger22
                    {
                      OFFSET -0.0071 -2.3249 -0.0142
                      CHANNELS 3 Zrotation Xrotation Yrotation
                      End Site
                      {
                        OFFSET 0.1475 -2.0882 0.0028
                      }
                    }
                  }
                }
                JOINT RightFinger3
                {
                  OFFSET -0.6113 -8.7231 -2.0637
                  CHANNELS 3 Zrotation Xrotation Yrotation
                  JOINT RightFinger31
                  {
                    OFFSET 0.1927 -3.8059 -0.2383
                    CHANNELS 3 Zrotation Xrotation Yrotation
                    JOINT RightFinger32
                    {
                      OFFSET 0.1091 -2.1688 -0.1362
                      CHANNELS 3 Zrotation Xrotation Yrotation
                      End Site
                      {
                        OFFSET 0.2358 -1.9176 -0.0906
                      }
                    }
                  }
                }
                JOINT RightFinger4
                {
                  OFFSET 0.6151 -8.0947 -3.564
                  CHANNELS 3 Zrotation Xrotation Yrotation
                  JOINT RightFinger41
                  {
                    OFFSET 0.4882 -2.341 -0.6462
                    CHANNELS 3 Zrotation Xrotation Yrotation
                    JOINT RightFinger42
                    {
                      OFFSET 0.3574 -1.7166 -0.4742
                      CHANNELS 3 Zrotation Xrotation Yrotation
                      End Site
                      {
                        OFFSET 0.4187 -1.5237 -0.3496
                      }
                    }
                  }
                }
                JOINT RightFinger0
                {
                  OFFSET 1.4199 -1.8761 1.4221
                  CHANNELS 3 Zrotation Xrotation Yrotation
                  JOINT RightFinger01
                  {
                    OFFSET 1.1472 -3.4929 2.6336
                    CHANNELS 3 Zrotation Xrotation Yrotation
                    JOINT RightFinger02
                    {
                      OFFSET 0.8229 -2.3 1.6571
                      CHANNELS 3 Zrotation Xrotation Yrotation
                      End Site
                      {
                        OFFSET 0.5822 -1.6914 1.1582
                      }
                    }
                  }
                }
              }
            }
          }
        }
      }
    }
  }
  JOINT RightHip
  {
    OFFSET -9.412 3.9771 -0.7758
    CHANNELS 3 Zrotation Xrotation Yrotation
    JOINT RightKnee
    {
      OFFSET -0.7531 -40.938 0
      CHANNELS 3 Zrotation Xrotation Yrotation
      JOINT RightAnkle
      {
        OFFSET 0 -40.1986 0
        CHANNELS 3 Zrotation Xrotation Yrotation
        JOINT RightToe
        {
          OFFSET 0 -4.4182 9.239
          CHANNELS 3 Zrotation Xrotation Yrotation
          End Site
          {
            OFFSET 0 0 6.1981
          }
        }
      }
    }
  }
  JOINT LeftHip
  {
    OFFSET 9.4119 3.9773 -0.7758
    CHANNELS 3 Zrotation Xrotation Yrotation
    JOINT LeftKnee
    {
      OFFSET 0.7532 -40.9383 0
      CHANNELS 3 Zrotation Xrotation Yrotation
      JOINT LeftAnkle
      {
        OFFSET 0 -40.1986 0
        CHANNELS 3 Zrotation Xrotation Yrotation
        JOINT LeftToe
        {
          OFFSET 0 -4.4182 9.239
          CHANNELS 3 Zrotation Xrotation Yrotation
          End Site
          {
            OFFSET 0 0 6.1981
          }
        }
      }
    }
  }
}
MOTION
Frames:	5
Frame Time:	0.0333333
5.72205e-005 65.662 3.42586 0 0 -0 0 0 -0 0 0 -0 0 0 -0 0 0 -0 0 0 -0 0 0 -12.5014 88.1196 14.2451 10.6914 -0.00160068 -0.00239207 0.000740045 -8.4365e-005 7.00714e-005 -9.52055e-007 9.93923e-017 -1.98785e-016 -1.59028e-015 9.93923e-017 -5.96354e-016 -1.59028e-015 -9.93923e-017 -5.96354e-016 -1.59028e-015 9.93923e-017 -1.98785e-016 -1.59028e-015 -0.0128176 0.00232552 8.52707e-005 9.93923e-017 5.96354e-016 -0 9.93923e-017 -1.98785e-016 -1.59028e-015 -0.0160551 0.00299681 0.000857156 -2.48481e-016 0 3.18055e-015 9.93923e-017 -1.98785e-016 -1.59028e-015 -0.0125865 0.0031206 0.00282719 0 1.98785e-016 -0 9.93923e-017 -1.98785e-016 -1.59028e-015 9.93923e-017 -5.96354e-016 -1.59028e-015 -9.93923e-017 -5.96354e-016 -1.59028e-015 -0.865644 0.16582 7.03859 -88.0329 10.2057 -10.5567 0.0015593 -0.00248883 -0.000788628 7.87605e-005 4.10553e-005 1.24965e-005 -3.97569e-016 -7.95139e-016 3.18055e-015 -1.98785e-016 -3.97569e-016 3.18055e-015 -1.98785e-016 0 3.18055e-015 -3.97569e-016 -7.95139e-016 3.18055e-015 0.0129473 0.00231697 -8.70038e-005 9.93923e-017 -7.95139e-016 1.59028e-015 -3.97569e-016 -7.95139e-016 3.18055e-015 0.0163314 0.00303369 -0.000872333 3.97569e-016 7.95139e-016 -3.18055e-015 -3.97569e-016 -7.95139e-016 3.18055e-015 0.0145763 0.00367772 -0.00326275 9.93923e-017 -3.97569e-016 -0 -3.97569e-016 -7.95139e-016 3.18055e-015 -1.98785e-016 -3.97569e-016 3.18055e-015 -1.98785e-016 0 3.18055e-015 3.42482 1.32465 -0.0626183 0.000117508 0.717283 0.000978199 -3.4257 -2.04197 -0.0604716 6.47761e-025 0 -0 -3.42483 1.34017 0.0627307 -0.000193936 0.682302 -0.0013703 3.42574 -2.02253 0.0595886 -8.45714e-024 0 -7.40531e-025 
-0.655846 65.0173 32.8389 0.0104159 -8.99857 -179.868 0.0150369 -0.0763663 -0.119007 0.0299163 -0.152781 -0.238003 0.0299152 -0.152784 -0.237994 9.56878e-005 -0.502353 -0.000809309 -8.42146e-009 -0.841061 1.34605e-007 -24.4141 11.4602 25.9504 -142.683 -82.7547 -170.013 -66.1675 -59.9564 -50.3167 0.814497 27.7404 7.30054 -3.18055e-015 -3.18055e-015 -4.77083e-015 -1.59028e-015 0 -1.59028e-015 -1.59028e-015 0 -1.59028e-015 -3.18055e-015 -3.18055e-015 -4.77083e-015 -0.0127927 0.00233335 7.80915e-005 0 3.18055e-015 -0 -3.18055e-015 -3.18055e-015 -4.77083e-015 -0.0160336 0.00300121 0.000853481 -4.77083e-015 0 -3.97569e-015 -3.18055e-015 -3.18055e-015 -4.77083e-015 -0.0126294 0.00312746 0.00282789 -1.59028e-015 0 -3.97569e-015 -3.18055e-015 -3.18055e-015 -4.77083e-015 -1.59028e-015 0 -1.59028e-015 -1.59028e-015 0 -1.59028e-015 18.5068 12.4239 -18.8865 134.755 -83.3371 158.44 27.0409 -50.6292 16.9537 5.16192 13.9787 -0.60943 -3.37001e-006 2.02072e-006 -3.39414e-006 -2.57442e-006 -2.87776e-006 7.02491e-006 -1.59028e-015 0 -0 -3.37001e-006 2.02072e-006 -3.39414e-006 0.0129615 0.0023232 -7.83384e-005 1.40616e-009 -9.00827e-007 -3.43167e-006 -3.37001e-006 2.02072e-006 -3.39414e-006 0.0162847 0.00301865 -0.000859642 -1.98045e-006 -5.32699e-006 -1.07764e-006 -3.37001e-006 2.02072e-006 -3.39414e-006 0.0145748 0.00367761 -0.00325328 -3.76575e-006 1.28606e-005 -4.98248e-006 -3.37001e-006 2.02072e-006 -3.39414e-006 -2.57442e-006 -2.87776e-006 7.02491e-006 -1.59028e-015 0 -0 -6.96551 -35.2689 -14.8884 -2.20685 44.1388 1.60058 9.89005 -16.7808 -4.37533 2.98177e-016 1.19271e-015 -3.18055e-015 7.99008 -35.3849 14.9988 1.98686 43.9894 -1.46328 -10.6369 -16.8464 4.25242 6.01801e-008 4.83359e-007 1.61364e-006 
-0.655541 65.0837 32.0231 0.00788389 -7.3902 -179.878 0.0140635 0.286961 -0.122031 0.0287392 0.573904 -0.24414 0.0287387 0.573893 -0.244136 -1.76594e-005 -0.999517 0.000185322 4.04804e-009 -1.66904 -1.363e-007 -24.2792 11.4322 25.5047 -142.684 -82.7547 -170.014 -64.6283 -59.8628 -48.964 0.684315 27.1658 7.01157 -6.36111e-015 6.36111e-015 3.18055e-015 -1.59028e-015 3.18055e-015 -0 -3.18055e-015 3.18055e-015 -0 -6.36111e-015 6.36111e-015 3.18055e-015 -0.0127988 0.00230436 8.12658e-005 -0 0 7.95139e-016 -6.36111e-015 6.36111e-015 3.18055e-015 -0.0160403 0.0029875 0.000855777 -3.18055e-015 -3.18055e-015 -4.77083e-015 -6.36111e-015 6.36111e-015 3.18055e-015 -0.0126579 0.0031258 0.00283918 -1.59028e-015 -6.36111e-015 -2.38542e-015 -6.36111e-015 6.36111e-015 3.18055e-015 -1.59028e-015 3.18055e-015 -0 -3.18055e-015 3.18055e-015 -0 18.2693 12.301 -18.4088 135.985 -83.1877 159.611 25.8184 -49.6763 15.9566 5.30507 13.1568 -0.440486 3.18055e-015 -1.90833e-014 -7.95139e-016 3.18055e-015 -9.54166e-015 -3.97569e-015 4.77083e-015 -6.36111e-015 -3.18055e-015 3.18055e-015 -1.90833e-014 -7.95139e-016 0.0129504 0.00232294 -9.29198e-005 1.59028e-015 -3.18055e-015 3.18055e-015 3.18055e-015 -1.90833e-014 -7.95139e-016 0.01633 0.0030514 -0.000867041 -4.77083e-015 0 -7.95139e-016 3.18055e-015 -1.90833e-014 -7.95139e-016 0.0144963 0.00366891 -0.00324019 -2.56007e-030 6.36111e-015 2.3059e-014 3.18055e-015 -1.90833e-014 -7.95139e-016 3.18055e-015 -9.54166e-015 -3.97569e-015 4.77083e-015 -6.36111e-015 -3.18055e-015 -6.86667 -33.1051 -14.7246 -2.20803 44.1476 1.60985 10.0103 -17.219 -4.16719 4.96962e-016 5.96354e-016 -3.18055e-015 7.88849 -33.2028 14.831 1.98685 43.9969 -1.47266 -10.7603 -17.288 4.00942 -4.96962e-016 2.2531e-007 -3.18055e-015 
-0.655185 65.1565 31.209 0.00563046 -5.77832 -179.888 0.0130978 0.653008 -0.124781 0.0276209 1.306 -0.249737 0.0276209 1.306 -0.249737 7.34006e-006 -1.49619 -0.000100296 -1.94051e-009 -2.49883 -1.30128e-007 -24.1442 11.4046 25.0582 -142.683 -82.7547 -170.014 -63.0977 -59.751 -47.6203 0.551493 26.5914 6.72251 1.59028e-015 -6.36111e-015 3.18055e-015 1.59028e-015 -3.18055e-015 -0 -3.97128e-006 -9.98235e-006 -2.0485e-006 1.59028e-015 -6.36111e-015 3.18055e-015 -0.012818 0.00231579 8.45543e-005 1.13084e-005 9.2464e-006 4.18918e-007 1.59028e-015 -6.36111e-015 3.18055e-015 -0.0160579 0.00301027 0.000860139 9.11439e-007 -1.0088e-005 -9.04028e-006 1.59028e-015 -6.36111e-015 3.18055e-015 -0.0125496 0.00311757 0.00281719 1.11416e-005 -1.48049e-005 -3.72405e-006 1.59028e-015 -6.36111e-015 3.18055e-015 1.59028e-015 -3.18055e-015 -0 -3.97128e-006 -9.98235e-006 -2.0485e-006 18.0333 12.1765 -17.9333 137.163 -83.0355 160.729 24.6432 -48.709 15.0084 5.45031 12.3347 -0.269847 -4.77083e-015 -3.18055e-015 -3.97569e-015 1.59028e-015 3.18055e-015 -3.97569e-015 4.77083e-015 0 -2.38542e-015 -4.77083e-015 -3.18055e-015 -3.97569e-015 0.0129837 0.00231849 -8.427e-005 -3.18055e-015 -3.18055e-015 -0 -4.77083e-015 -3.18055e-015 -3.97569e-015 0.016378 0.00303491 -0.00087456 1.59028e-015 3.18055e-015 3.18055e-015 -4.77083e-015 -3.18055e-015 -3.97569e-015 0.0145258 0.00364896 -0.00324885 -1.59028e-015 -9.54166e-015 -0 -4.77083e-015 -3.18055e-015 -3.97569e-015 1.59028e-015 3.18055e-015 -3.97569e-015 4.77083e-015 0 -2.38542e-015 -6.77743 -30.9297 -14.5686 -2.20803 44.1552 1.61915 10.1323 -17.6577 -3.95755 2.28602e-015 -3.97569e-016 -0 7.79597 -31.0128 14.6707 1.98745 44.0065 -1.48217 -10.8858 -17.7298 3.76477 7.37813e-007 -4.85905e-007 -3.21647e-006 
-0.654777 65.2356 30.397 0.00368828 -4.1636 -179.899 0.0121814 1.02172 -0.127584 0.026645 2.0434 -0.255446 0.0266451 2.0434 -0.255446 1.22363e-006 -1.99452 -2.37172e-005 1.17281e-008 -3.33036 8.71221e-008 -24.0094 11.3745 24.6117 -142.683 -82.7547 -170.013 -61.5777 -59.6212 -46.2873 0.416056 26.0176 6.43326 -9.54166e-015 9.54166e-015 -1.59028e-014 -2.42233e-006 6.84284e-007 -2.60586e-006 1.59028e-015 -3.18055e-015 -7.95139e-016 -9.54166e-015 9.54166e-015 -1.59028e-014 -0.0128058 0.00232503 8.70013e-005 3.18055e-015 -3.18055e-015 -3.18055e-015 -9.54166e-015 9.54166e-015 -1.59028e-014 -0.0160245 0.00299173 0.000859717 1.59028e-015 -6.36111e-015 -3.18055e-015 -9.54166e-015 9.54166e-015 -1.59028e-014 -0.0126668 0.00313143 0.00284096 -9.54166e-015 9.54166e-015 -2.78299e-014 -9.54166e-015 9.54166e-015 -1.59028e-014 -2.42233e-006 6.84284e-007 -2.60586e-006 1.59028e-015 -3.18055e-015 -7.95139e-016 17.7983 12.049 -17.4578 138.292 -82.8806 161.799 23.5129 -47.7283 14.1068 5.5977 11.5126 -0.0975536 7.93165e-007 6.61768e-007 3.17565e-006 -2.37817e-006 -5.55206e-007 -2.66422e-006 -2.7741e-006 2.8333e-006 -8.20678e-007 7.93165e-007 6.61768e-007 3.17565e-006 0.0129365 0.00231868 -8.48336e-005 -2.00898e-007 1.62317e-006 -4.41636e-006 7.93165e-007 6.61768e-007 3.17565e-006 0.0163386 0.00304788 -0.000871309 -3.76721e-006 -1.14124e-005 -4.9815e-006 7.93165e-007 6.61768e-007 3.17565e-006 0.0145487 0.00369535 -0.00325639 2.37742e-006 -5.44048e-006 -7.66963e-007 7.93165e-007 6.61768e-007 3.17565e-006 -2.37817e-006 -5.55206e-007 -2.66422e-006 -2.7741e-006 2.8333e-006 -8.20678e-007 -6.69635 -28.7482 -14.4192 -2.20844 44.165 1.62861 10.256 -18.0968 -3.74636 8.80569e-007 4.15067e-007 1.63619e-006 7.71223 -28.8154 14.5176 1.9878 44.0177 -1.49174 -11.0134 -18.1723 3.51837 -3.47873e-015 3.97569e-016 -6.36111e-015 
